<svg width="152" height="34" viewBox="0 0 152 34" fill="none" xmlns="http://www.w3.org/2000/svg">
<path d="M143.58 33.8649C141.976 33.8649 140.629 33.3356 139.538 32.277C138.48 31.2185 137.95 29.7108 137.95 27.7541V15.5324H135.16C134.999 15.5324 134.919 15.1956 134.919 14.522C134.919 14.3295 134.935 14.2173 134.967 14.1852C135.93 13.7361 136.94 12.886 137.999 11.635C138.736 10.7689 139.282 10.0151 139.635 9.37351C140.019 8.73196 140.212 8.34702 140.212 8.21871C141.174 8.21871 141.655 8.29891 141.655 8.4593V13.2228L145.457 13.271H148.151C148.408 13.271 148.536 13.4153 148.536 13.704C148.536 14.3135 148.376 14.923 148.055 15.5324H141.655V27.321C141.655 28.6041 141.976 29.6306 142.618 30.4005C143.291 31.1704 144.157 31.5553 145.216 31.5553C146.21 31.5553 147.205 31.2505 148.199 30.6411C148.296 30.5769 148.44 30.7213 148.632 31.0741C148.825 31.3949 148.905 31.5713 148.873 31.6034C148.392 32.1166 147.654 32.6299 146.66 33.1431C145.665 33.6243 144.639 33.8649 143.58 33.8649Z" fill="#FFFFFF"/>
<path d="M121.879 33.8649C119.955 33.8649 118.191 33.3837 116.587 32.4214C114.983 31.4591 113.7 30.1599 112.737 28.5239C111.807 26.888 111.342 25.0916 111.342 23.1349C111.342 21.1461 111.791 19.3497 112.689 17.7458C113.619 16.1419 114.87 14.8748 116.442 13.9446C118.014 12.9823 119.794 12.5011 121.783 12.5011C123.708 12.5011 125.456 12.9823 127.028 13.9446C128.632 14.9069 129.899 16.19 130.829 17.7939C131.792 19.3978 132.273 21.1781 132.273 23.1349C132.273 25.0916 131.808 26.888 130.877 28.5239C129.947 30.1599 128.696 31.4591 127.124 32.4214C125.584 33.3837 123.836 33.8649 121.879 33.8649ZM122.313 31.9883C123.467 31.9883 124.478 31.6194 125.344 30.8817C126.21 30.1439 126.884 29.1495 127.365 27.8984C127.878 26.6474 128.135 25.2841 128.135 23.8085C128.135 22.0763 127.814 20.5045 127.172 19.0931C126.531 17.6496 125.681 16.5108 124.622 15.6768C123.596 14.8107 122.473 14.3776 121.254 14.3776C120.131 14.3776 119.121 14.7465 118.223 15.4843C117.357 16.19 116.683 17.1524 116.202 18.3713C115.721 19.5582 115.48 20.9055 115.48 22.4131C115.48 24.1453 115.785 25.7492 116.394 27.2248C117.036 28.6683 117.87 29.8231 118.896 30.6892C119.955 31.5553 121.094 31.9883 122.313 31.9883Z" fill="#FFFFFF"/>
<path d="M93.0576 33.6724C92.9293 33.5441 92.8651 33.2715 92.8651 32.8544C92.8651 32.4695 92.9293 32.277 93.0576 32.277C93.3142 32.277 93.6671 32.2289 94.1162 32.1327C94.5652 32.0365 94.9823 31.9081 95.3672 31.7478C95.7521 31.5874 95.9606 31.443 95.9927 31.3147C96.121 30.8656 96.2012 30.3524 96.2333 29.775C96.2974 29.1976 96.3295 28.5881 96.3295 27.9465V18.8525C96.3295 17.6335 96.105 16.7674 95.6559 16.2542C95.3351 15.8693 94.9502 15.6126 94.5011 15.4843C94.0841 15.356 93.6991 15.2919 93.3463 15.2919C93.0255 15.2598 92.8651 15.2117 92.8651 15.1475C92.8651 14.3776 92.9614 13.9767 93.1538 13.9446C96.6503 13.3993 98.6712 13.0464 99.2165 12.886L100.035 12.6454C100.163 12.6134 100.243 12.7417 100.275 13.0304C100.307 13.3191 100.307 13.5276 100.275 13.6559L99.9864 16.0617C100.564 15.1956 101.35 14.3937 102.344 13.6559C103.371 12.886 104.381 12.5011 105.375 12.5011C107.236 12.5011 108.487 12.9662 109.129 13.8965C109.129 15.0192 108.952 15.8372 108.599 16.3504C108.246 16.8637 107.813 17.1203 107.3 17.1203C106.723 17.1203 106.193 16.8476 105.712 16.3023C105.231 15.757 104.574 15.4843 103.739 15.4843C103.098 15.4843 102.488 15.7089 101.911 16.158C101.334 16.575 100.869 17.1203 100.516 17.7939C100.195 18.4355 100.035 19.1091 100.035 19.8148V27.0323C100.035 27.9626 100.067 28.7806 100.131 29.4863C100.195 30.192 100.291 30.8015 100.419 31.3147C100.484 31.443 100.708 31.5874 101.093 31.7478C101.478 31.9081 101.895 32.0365 102.344 32.1327C102.825 32.2289 103.162 32.277 103.355 32.277C103.451 32.277 103.515 32.4695 103.547 32.8544C103.579 33.2394 103.563 33.512 103.499 33.6724L98.3023 33.4318L93.0576 33.6724Z" fill="#FFFFFF"/>
<path d="M82.087 33.8168C80.3227 33.8168 78.7028 33.3516 77.2272 32.4214C75.7516 31.4911 74.5648 30.2561 73.6666 28.7164C72.8005 27.1446 72.3674 25.3964 72.3674 23.4717C72.3674 21.2262 72.7845 19.2855 73.6185 17.6496C74.4525 16.0136 75.5913 14.7626 77.0348 13.8965C78.4783 12.9983 80.0982 12.5492 81.8945 12.5492C83.3701 12.5492 84.6693 12.8379 85.792 13.4153C86.9147 13.9606 87.7808 14.6663 88.3903 15.5324C88.9677 16.4306 89.3847 17.3448 89.6413 18.2751C89.93 19.1733 90.0744 20.0715 90.0744 20.9696C90.0744 21.6112 89.9781 22.0122 89.7857 22.1725C89.5932 22.3009 89.2243 22.365 88.679 22.365H76.5536C76.297 22.365 76.1687 22.4452 76.1687 22.6056C76.1687 23.9529 76.4413 25.252 76.9866 26.503C77.532 27.722 78.3339 28.7324 79.3925 29.5344C80.451 30.3363 81.7502 30.7373 83.2899 30.7373C84.6372 30.7373 85.7599 30.5448 86.6581 30.1599C87.5883 29.7429 88.262 29.374 88.679 29.0532L89.0158 28.8126C89.2083 28.8126 89.3045 29.0211 89.3045 29.4382C89.3045 29.6627 89.2083 29.9514 89.0158 30.3043C88.3743 31.2024 87.428 32.0204 86.1769 32.7582C84.9259 33.4639 83.5626 33.8168 82.087 33.8168ZM76.5536 20.3441H85.9363C86.0967 20.3441 86.1769 20.1837 86.1769 19.8629C86.1769 19.1572 85.9845 18.3874 85.5995 17.5533C85.2467 16.6872 84.7013 15.9334 83.9636 15.2919C83.2258 14.6503 82.2955 14.3295 81.1728 14.3295C80.1463 14.3295 79.2642 14.6824 78.5264 15.3881C77.7886 16.0617 77.2272 16.8476 76.8423 17.7458C76.4574 18.6119 76.2649 19.3657 76.2649 20.0073C76.2649 20.2318 76.3611 20.3441 76.5536 20.3441Z" fill="#FFFFFF"/>
<path d="M63.4659 33.8168C63.2734 33.8168 63.1772 33.5441 63.1772 32.9988V32.4214C63.1772 32.261 63.113 32.1968 62.9847 32.2289C61.2204 33.2233 59.5203 33.7205 57.8843 33.7205C56.1201 33.7205 54.5162 33.2875 53.0727 32.4214C51.6612 31.5232 50.5385 30.3524 49.7045 28.9089C48.9026 27.4333 48.5016 25.8294 48.5016 24.0972C48.5016 22.5575 48.7903 21.0819 49.3677 19.6705C49.9772 18.2591 50.7791 17.008 51.7735 15.9174C52.8 14.7947 53.9548 13.9286 55.2379 13.3191C56.521 12.6775 57.8523 12.3567 59.2316 12.3567C60.6109 12.3567 61.8139 12.6294 62.8404 13.1747C63.0649 13.1747 63.1772 12.886 63.1772 12.3086V7.11203C63.1772 6.02138 63.0809 4.9949 62.8885 4.03256C62.7602 3.51932 61.9422 3.2627 60.4345 3.2627H60.0015C59.809 3.2627 59.7128 3.08627 59.7128 2.73341C59.7128 2.22017 59.809 1.96354 60.0015 1.96354C61.7978 1.80316 63.2092 1.56257 64.2357 1.2418C65.2943 0.921018 66.0481 0.60024 66.4972 0.279463L66.6897 0.135113H66.7859C66.9142 0.135113 67.0425 0.231346 67.1708 0.423813C67.2992 0.584202 67.3794 0.74459 67.4114 0.904979C67.0586 1.96355 66.8821 3.35893 66.8821 5.09113V26.7436C66.8821 28.2513 66.9784 29.4702 67.1708 30.4005C67.2671 30.7213 67.5397 30.9298 67.9888 31.026C68.47 31.0902 68.9672 31.1543 69.4804 31.2185L69.9135 31.2666C70.0097 31.2987 70.0578 31.4911 70.0578 31.844C70.0578 32.3252 69.9616 32.5657 69.7691 32.5657C68.7106 32.6299 67.6199 32.8063 66.4972 33.095C65.3745 33.3516 64.5084 33.5602 63.8989 33.7205L63.4659 33.8168ZM59.7128 31.3628C60.8034 31.3628 61.6535 31.1222 62.2629 30.6411C62.8724 30.1278 63.1772 29.4542 63.1772 28.6202V17.1684C63.1772 16.4948 62.8083 15.8693 62.0705 15.2919C61.3648 14.6824 60.21 14.3776 58.6061 14.3776C57.3871 14.3776 56.3286 14.7626 55.4304 15.5324C54.5322 16.3023 53.8425 17.3288 53.3614 18.6119C52.8802 19.8629 52.6396 21.2262 52.6396 22.7018C52.6396 24.2416 52.9123 25.669 53.4576 26.9842C54.035 28.2994 54.853 29.358 55.9115 30.1599C56.9701 30.9619 58.2372 31.3628 59.7128 31.3628Z" fill="#FFFFFF"/>
<path d="M34.8364 33.6724C34.7081 33.5441 34.644 33.2714 34.644 32.8544C34.644 32.4695 34.7081 32.277 34.8364 32.277C35.0931 32.277 35.4459 32.2289 35.895 32.1327C36.3441 32.0365 36.7611 31.9081 37.146 31.7478C37.531 31.5874 37.7395 31.443 37.7716 31.3147C37.8999 30.8656 37.9801 30.3524 38.0121 29.775C38.0763 29.1976 38.1084 28.5881 38.1084 27.9465V18.8525C38.1084 17.6335 37.8838 16.7674 37.4347 16.2542C37.114 15.8372 36.729 15.5806 36.2799 15.4843C35.8309 15.356 35.4459 15.2919 35.1251 15.2919C34.8044 15.2598 34.644 15.2117 34.644 15.1475C34.644 14.3776 34.7402 13.9767 34.9327 13.9446C36.6328 13.688 37.932 13.4795 38.8301 13.3191C39.7283 13.1266 40.5303 12.9502 41.236 12.7898L41.8134 12.6454C41.9417 12.6134 42.0219 12.7417 42.0539 13.0304C42.086 13.3191 42.086 13.5276 42.0539 13.6559C41.9898 14.2974 41.9256 14.9069 41.8615 15.4843C41.8294 16.0617 41.8134 16.607 41.8134 17.1203V27.0323C41.8134 27.9626 41.8454 28.7806 41.9096 29.4863C41.9738 30.192 42.07 30.8015 42.1983 31.3147C42.2625 31.443 42.487 31.5874 42.8719 31.7478C43.2569 31.9081 43.6739 32.0365 44.123 32.1327C44.5721 32.2289 44.8928 32.277 45.0853 32.277C45.1815 32.277 45.2457 32.4695 45.2778 32.8544C45.3098 33.2394 45.2938 33.512 45.2296 33.6724L40.0812 33.4318L34.8364 33.6724ZM39.6 7.40073C38.9584 7.40073 38.3971 7.16014 37.9159 6.67898C37.4347 6.19781 37.1942 5.63645 37.1942 4.99489C37.1942 4.32126 37.4347 3.7599 37.9159 3.31081C38.3971 2.82965 38.9584 2.58906 39.6 2.58906C40.2736 2.58906 40.835 2.82965 41.2841 3.31081C41.7652 3.7599 42.0058 4.32126 42.0058 4.99489C42.0058 5.63645 41.7652 6.19781 41.2841 6.67898C40.835 7.16014 40.2736 7.40073 39.6 7.40073Z" fill="#FFFFFF"/>
<path d="M0.192466 33.6724C0.0962332 33.5762 0.0481166 33.3356 0.0481166 32.9507C0.0481166 32.5016 0.0962332 32.277 0.192466 32.277C0.481166 32.277 0.8661 32.2289 1.34727 32.1327C1.82843 32.0044 2.27752 31.86 2.69453 31.6996C3.14362 31.5392 3.41628 31.3628 3.51252 31.1704C3.73706 30.8175 3.84933 29.3098 3.84933 26.6474V8.45929C3.84933 7.52904 3.81725 6.71106 3.7531 6.00535C3.72102 5.29963 3.64083 4.73827 3.51252 4.32126C3.44836 4.12879 3.19174 3.95237 2.74265 3.79198C2.32564 3.63159 1.86051 3.50328 1.34727 3.40705C0.8661 3.31081 0.481166 3.2627 0.192466 3.2627C0.0641554 3.2627 0 3.07023 0 2.6853C0 2.26829 0.0641554 1.99562 0.192466 1.86731C1.02649 1.89939 1.90863 1.93147 2.83888 1.96355C3.80122 1.96355 4.8277 1.96355 5.91835 1.96355L10.5857 1.91543C11.5159 1.91543 12.2858 1.91543 12.8953 1.91543C13.5047 1.88335 13.9699 1.86731 14.2906 1.86731C17.7871 1.86731 20.7704 2.58906 23.2403 4.03256C25.7103 5.44398 27.6029 7.32053 28.9181 9.66221C30.2333 12.0039 30.8909 14.5701 30.8909 17.3609C30.8909 20.4403 30.2173 23.2311 28.87 25.7332C27.5548 28.2352 25.6462 30.208 23.1441 31.6515C20.6741 33.095 17.7069 33.7687 14.2425 33.6724L10.8262 33.5762C9.86391 33.5441 8.98178 33.5281 8.17983 33.5281C7.37789 33.496 6.65614 33.496 6.01458 33.5281L0.192466 33.6724ZM15.0124 31.4591C22.3903 31.4591 26.0792 26.6955 26.0792 17.1684C26.0792 14.7305 25.6462 12.5171 24.7801 10.5283C23.914 8.53949 22.6309 6.95164 20.9307 5.76476C19.2627 4.57788 17.1776 3.98445 14.6756 3.98445H14.435C10.9706 3.98445 9.04593 4.24107 8.661 4.75431C8.24399 5.29963 8.03548 6.31008 8.03548 7.78566V26.8399C8.03548 28.155 8.27606 29.374 8.75723 30.4967C8.82139 30.6571 9.09405 30.8015 9.57521 30.9298C10.0564 31.026 10.6338 31.1222 11.3074 31.2185C12.0131 31.2826 12.7028 31.3468 13.3764 31.4109C14.0501 31.443 14.5954 31.4591 15.0124 31.4591Z" fill="#FFFFFF"/>
</svg>